# File created by Blade
# Date/Time:  Tue Jan 27 17:01:45 2015
#---------------------------------------------------------
:version 1.10
:name HOM
:units
  mass 1.0
  length 1.000000
  angle deg
:documentation
     Acclaim Skeleton File
:root
   axis xyz
   order TX TY TZ RX RY RZ
   position 0.000000 0.000000 0.000000
   orientation 0 0 0
:bonedata
   begin
      id 1
      name Spine_dum
      direction 0.000000 1.000000 0.000000
      length 7.539951
      axis 0.0 0.0 0.0 xyz
   end
   begin
      id 2
      name LeftUpLeg_dum
      direction 1.000000 0.000000 0.000000
      length 3.345476
      axis 0.0 0.0 0.0 xyz
   end
   begin
      id 3
      name RightUpLeg_dum
      direction -1.000000 0.000000 0.000000
      length 3.345476
      axis 0.0 0.0 0.0 xyz
   end
   begin
      id 4
      name Spine
      direction 0.000000 1.000000 0.000000
      length 0.000000
      axis 0.0 0.0 0.0 xyz
      dof rx ry rz
   end
   begin
      id 5
      name Spine_dum1
      direction 0.000000 1.000000 0.000000
      length 15.093809
      axis 0.0 0.0 0.0 xyz
   end
   begin
      id 6
      name Spine_dum2
      direction 0.000000 1.000000 0.000000
      length 9.738928
      axis 0.0 0.0 0.0 xyz
   end
   begin
      id 7
      name Spine_dum3
      direction 0.000000 1.000000 0.000000
      length 9.738928
      axis 0.0 0.0 0.0 xyz
   end
   begin
      id 8
      name Head
      direction 0.000000 1.000000 0.000000
      length 4.527550
      axis 0.0 0.0 0.0 xyz
      dof rx ry rz
   end
   begin
      id 9
      name LeftShoulder
      direction 1.000000 0.000000 0.000000
      length 7.084015
      axis 0.0 0.0 -90.0 xyz
      dof rx ry rz
   end
   begin
      id 10
      name LeftArm
      direction 1.000000 0.000000 0.000000
      length 10.259319
      axis 0.0 0.0 -90.0 xyz
      dof rx ry rz
   end
   begin
      id 11
      name LeftForeArm
      direction 1.000000 0.000000 0.000000
      length 9.896984
      axis 0.0 0.0 -90.0 xyz
      dof ry rz rx
   end
   begin
      id 12
      name LeftHand
      direction 0.000000 0.000000 0.000000
      length 0.000000
      axis 0.0 0.0 -90.0 xyz
      dof rx ry rz
   end
   begin
      id 13
      name LeftHand_dum1
      direction 0.000000 0.000000 0.000000
      length 0.000000
      axis 0.0 0.0 -90.0 xyz
   end
   begin
      id 14
      name LeftHand_dum2
      direction 1.000000 0.000000 0.000000
      length 3.937000
      axis 0.0 0.0 -90.0 xyz
   end
   begin
      id 15
      name LeftHandThumb1
      direction 0.000000 0.000000 1.000000
      length 3.937000
      axis 0.0 0.0 -90.0 xyz
      dof rx rz ry
   end
   begin
      id 16
      name RightShoulder
      direction -1.000000 0.000000 0.000000
      length 7.084015
      axis 0.0 0.0 90.0 xyz
      dof rx ry rz
   end
   begin
      id 17
      name RightArm
      direction -1.000000 0.000000 0.000000
      length 10.259319
      axis 0.0 0.0 90.0 xyz
      dof rx ry rz
   end
   begin
      id 18
      name RightForeArm
      direction -1.000000 0.000000 0.000000
      length 9.896984
      axis 0.0 0.0 90.0 xyz
      dof ry rz rx
   end
   begin
      id 19
      name RightHand
      direction 0.000000 0.000000 0.000000
      length 0.000000
      axis 0.0 0.0 90.0 xyz
      dof rx ry rz
   end
   begin
      id 20
      name RightHand_dum1
      direction 0.000000 0.000000 0.000000
      length 0.000000
      axis 0.0 0.0 90.0 xyz
   end
   begin
      id 21
      name RightHand_dum2
      direction -1.000000 0.000000 0.000000
      length 3.937000
      axis 0.0 0.0 90.0 xyz
   end
   begin
      id 22
      name RightHandThumb1
      direction 0.000000 0.000000 1.000000
      length 3.937000
      axis 0.0 0.0 90.0 xyz
      dof rx rz ry
   end
   begin
      id 23
      name LeftUpLeg
      direction 0.000000 -1.000000 0.000000
      length 19.114733
      axis 0.0 0.0 0.0 xyz
      dof rx ry rz
   end
   begin
      id 24
      name LeftLeg
      direction 0.000000 -1.000000 0.000000
      length 16.045604
      axis 0.0 0.0 0.0 xyz
      dof rx ry rz
   end
   begin
      id 25
      name LeftFoot
      direction 0.000000 -0.258819 0.965926
      length 5.543155
      axis 15.0 0.0 0.0 xyz
      dof rx ry rz
   end
   begin
      id 26
      name LeftToeBase
      direction 0.000000 0.000000 1.000000
      length 2.952750
      axis 0.0 0.0 0.0 xyz
      dof rx ry rz
   end
   begin
      id 27
      name RightUpLeg
      direction 0.000000 -1.000000 0.000000
      length 19.114733
      axis 0.0 0.0 0.0 xyz
      dof rx ry rz
   end
   begin
      id 28
      name RightLeg
      direction 0.000000 -1.000000 0.000000
      length 16.045604
      axis 0.0 0.0 0.0 xyz
      dof rx ry rz
   end
   begin
      id 29
      name RightFoot
      direction 0.000000 -0.258819 0.965926
      length 5.543155
      axis 15.0 0.0 0.0 xyz
      dof rx ry rz
   end
   begin
      id 30
      name RightToeBase
      direction 0.000000 0.000000 1.000000
      length 2.952750
      axis 0.0 0.0 0.0 xyz
      dof rx ry rz
   end
:hierarchy
   begin
      root Spine_dum LeftUpLeg_dum RightUpLeg_dum
      Spine_dum Spine
      LeftUpLeg_dum LeftUpLeg
      RightUpLeg_dum RightUpLeg
      Spine Spine_dum1 Spine_dum2 Spine_dum3
      Spine_dum1 Head
      Spine_dum2 LeftShoulder
      Spine_dum3 RightShoulder
      LeftShoulder LeftArm
      LeftArm LeftForeArm
      LeftForeArm LeftHand
      LeftHand LeftHand_dum1 LeftHand_dum2
      LeftHand_dum1 LeftHandThumb1
      RightShoulder RightArm
      RightArm RightForeArm
      RightForeArm RightHand
      RightHand RightHand_dum1 RightHand_dum2
      RightHand_dum1 RightHandThumb1
      LeftUpLeg LeftLeg
      LeftLeg LeftFoot
      LeftFoot LeftToeBase
      RightUpLeg RightLeg
      RightLeg RightFoot
      RightFoot RightToeBase
   end

# File created by Blade
# Date/Time:  Tue Jan 27 17:01:38 2015
# Frame Rate: 120.000 fps
#------------------------------------------------------
:FULLY-SPECIFIED
:DEGREES
604
root -0.777588 36.837102 5.103742 6.364833 -22.013483 -3.475727
Spine -1.164415 -1.289795 -0.678205
Head -1.973401 1.536411 6.206460
LeftShoulder 2.241651 -2.482249 -1.501300
LeftArm 4.230728 32.613938 -68.826401
LeftForeArm -63.652320 -0.000000 28.496188
LeftHand -7.253503 -0.000000 -14.708569
LeftHandThumb1 -26.253704 0.000000 33.147579
RightShoulder -2.410885 -22.358169 2.128628
RightArm 25.605316 -33.667275 51.632174
RightForeArm -149.325104 -0.000000 32.330025
RightHand -0.849103 -0.000000 -2.447537
RightHandThumb1 -24.326973 -0.000000 -32.862282
LeftUpLeg 0.290982 25.219972 5.936935
LeftLeg 8.910994 -0.000000 -0.000000
LeftFoot -22.771336 10.815513 -24.255132
LeftToeBase 14.846665 -0.000000 -0.000000
RightUpLeg -7.591614 2.638345 -0.456184
RightLeg 9.020106 -0.000000 -0.000000
RightFoot -10.715676 4.443225 11.684113
RightToeBase 10.669177 -0.000000 -0.000000
605
root -0.776179 36.837174 5.097029 6.350678 -21.998083 -3.468330
Spine -1.172991 -1.283988 -0.686752
Head -1.930764 1.519966 6.170463
LeftShoulder 2.241091 -2.575261 -1.538529
LeftArm 4.520673 32.520744 -68.446197
LeftForeArm -63.612751 -0.000000 30.111227
LeftHand -7.236340 -0.000000 -15.137841
LeftHandThumb1 -26.253704 0.000000 33.147579
RightShoulder -2.388775 -22.348759 2.105738
RightArm 25.631947 -33.629424 51.649273
RightForeArm -149.283342 -0.000000 32.363368
RightHand -0.975376 -0.000000 -2.281815
RightHandThumb1 -24.326973 -0.000000 -32.862282
LeftUpLeg 0.280378 25.229100 5.934355
LeftLeg 8.929290 -0.000000 -0.000000
LeftFoot -22.755981 10.794100 -24.244565
LeftToeBase 14.823596 -0.000000 -0.000000
RightUpLeg -7.598335 2.634879 -0.459989
RightLeg 9.038966 -0.000000 -0.000000
RightFoot -10.714362 4.436393 11.684815
RightToeBase 10.659556 -0.000000 -0.000000
606
root -0.768009 36.839985 5.069355 6.603925 -21.613406 -3.435830
Spine -1.511942 -1.652555 -0.663280
Head -1.820959 1.521525 6.141061
LeftShoulder 2.203297 -2.561983 -1.549612
LeftArm 4.863545 32.549890 -68.045806
LeftForeArm -63.908852 0.000000 31.760394
LeftHand -6.801164 -0.000000 -15.456853
LeftHandThumb1 -26.253704 0.000000 33.147579
RightShoulder -2.405587 -22.384481 2.087158
RightArm 25.663739 -33.599150 51.657227
RightForeArm -149.344155 -0.000000 32.395801
RightHand -0.896160 -0.000000 -2.511628
RightHandThumb1 -24.326973 -0.000000 -32.862282
LeftUpLeg -0.210529 24.771997 5.761070
LeftLeg 9.062966 -0.000000 -0.000000
LeftFoot -22.817882 10.904421 -24.269497
LeftToeBase 14.861393 -0.000000 -0.000000
RightUpLeg -7.874209 2.259187 -0.452417
RightLeg 9.045791 -0.000000 -0.000000
RightFoot -10.709956 4.405021 11.697665
RightToeBase 10.686662 -0.000000 -0.000000
607
root -0.763709 36.841507 5.051101 6.784055 -21.349396 -3.391720
Spine -1.785572 -1.892958 -0.680529
Head -1.712558 1.508295 6.130896
LeftShoulder 2.185346 -2.608636 -1.557703
LeftArm 5.084958 32.460849 -67.700796
LeftForeArm -64.176604 -0.000000 33.576489
LeftHand -6.759562 -0.000000 -15.538992
LeftHandThumb1 -26.253704 0.000000 33.147579
RightShoulder -2.435936 -22.411514 2.094246
RightArm 25.685744 -33.617780 51.656442
RightForeArm -149.131355 -0.000000 32.466131
RightHand -0.838879 -0.000000 -2.457405
RightHandThumb1 -24.326973 -0.000000 -32.862282
LeftUpLeg -0.558419 24.479281 5.624649
LeftLeg 9.154615 -0.000000 -0.000000
LeftFoot -22.828768 10.957363 -24.256572
LeftToeBase 14.841246 -0.000000 -0.000000
RightUpLeg -8.072561 2.017769 -0.469008
RightLeg 9.046948 -0.000000 -0.000000
RightFoot -10.708706 4.384332 11.711846
RightToeBase 10.610200 -0.000000 -0.000000
608
root -0.763706 36.841402 5.047577 6.785830 -21.344308 -3.383623
Spine -1.829116 -1.884457 -0.696597
Head -1.656348 1.488757 6.114187
LeftShoulder 2.183807 -2.660748 -1.540380
LeftArm 5.299969 32.358054 -67.381450
LeftForeArm -64.329608 -0.000000 35.438942
LeftHand -6.706882 -0.000000 -15.621293
LeftHandThumb1 -26.253704 0.000000 33.147579
RightShoulder -2.439386 -22.408677 2.088613
RightArm 25.734229 -33.635756 51.645410
RightForeArm -149.121139 -0.000000 32.482343
RightHand -1.005501 -0.000000 -2.249136
RightHandThumb1 -24.326973 -0.000000 -32.862282
LeftUpLeg -0.569046 24.509612 5.616814
LeftLeg 9.151614 -0.000000 -0.000000
LeftFoot -22.809394 10.932653 -24.246229
LeftToeBase 14.835449 -0.000000 -0.000000
RightUpLeg -8.080520 2.039223 -0.472647
RightLeg 9.045010 -0.000000 -0.000000
RightFoot -10.721431 4.338933 11.691255
RightToeBase 10.628043 -0.000000 -0.000000
609
root -0.764847 36.841387 5.044104 6.790755 -21.322975 -3.372857
Spine -1.873545 -1.895762 -0.722959
Head -1.608612 1.469881 6.114519
LeftShoulder 2.185539 -2.718567 -1.539769
LeftArm 5.483492 32.276249 -67.073575
LeftForeArm -64.574683 -0.000000 37.340589
LeftHand -6.100782 0.000000 -16.145925
LeftHandThumb1 -26.253704 0.000000 33.147579
RightShoulder -2.446612 -22.375999 2.099855
RightArm 25.738913 -33.652213 51.637976
RightForeArm -149.133016 -0.000000 32.552063
RightHand -1.112506 -0.000000 -2.128496
RightHandThumb1 -24.326973 -0.000000 -32.862282
LeftUpLeg -0.589878 24.503575 5.607180
LeftLeg 9.158758 -0.000000 -0.000000
LeftFoot -22.797590 10.916538 -24.225848
LeftToeBase 14.831462 -0.000000 -0.000000
RightUpLeg -8.096979 2.016420 -0.473602
RightLeg 9.054463 -0.000000 -0.000000
RightFoot -10.736183 4.335712 11.660706
RightToeBase 10.616916 -0.000000 -0.000000
610
root -0.764343 36.841601 5.040105 6.793916 -21.315058 -3.364256
Spine -1.904744 -1.902723 -0.735954
Head -1.594962 1.442673 6.075441
LeftShoulder 2.162927 -2.769438 -1.508066
LeftArm 5.676675 32.114686 -66.817850
LeftForeArm -64.582558 -0.000000 39.270508
LeftHand -5.830977 -0.000000 -16.516894
LeftHandThumb1 -26.253704 0.000000 33.147579
RightShoulder -2.450776 -22.393694 2.094001
RightArm 25.799217 -33.649772 51.607601
RightForeArm -149.083022 -0.000000 32.642053
RightHand -0.956283 -0.000000 -2.190750
RightHandThumb1 -24.326973 -0.000000 -32.862282
LeftUpLeg -0.603193 24.522945 5.597886
LeftLeg 9.153364 -0.000000 -0.000000
LeftFoot -22.784115 10.887386 -24.224956
LeftToeBase 14.869772 -0.000000 -0.000000
RightUpLeg -8.112126 2.026020 -0.482127
RightLeg 9.063631 -0.000000 -0.000000
RightFoot -10.742256 4.321053 11.684135
RightToeBase 10.675340 -0.000000 -0.000000
611
root -0.765113 36.841915 5.036824 6.799143 -21.299097 -3.357966
Spine -1.941763 -1.922126 -0.756574
Head -1.564113 1.427127 6.076812
LeftShoulder 2.146824 -2.795088 -1.467704
LeftArm 5.843481 31.789147 -66.633566
LeftForeArm -64.286589 0.000000 41.214439
LeftHand -5.693324 -0.000000 -17.112249
LeftHandThumb1 -26.253704 0.000000 33.147579
RightShoulder -2.463862 -22.397057 2.107467
RightArm 25.855544 -33.662742 51.566430
RightForeArm -149.061755 -0.000000 32.712310
RightHand -0.939815 -0.000000 -2.172680
RightHandThumb1 -24.326973 -0.000000 -32.862282
LeftUpLeg -0.618474 24.506513 5.590133
LeftLeg 9.150765 -0.000000 -0.000000
LeftFoot -22.770136 10.895098 -24.220726
LeftToeBase 14.830273 -0.000000 -0.000000
RightUpLeg -8.123838 2.023698 -0.485730
RightLeg 9.069086 -0.000000 -0.000000
RightFoot -10.742314 4.284073 11.683299
RightToeBase 10.683494 -0.000000 -0.000000
612
root -0.763632 36.841843 5.033559 6.806601 -21.287194 -3.345711
Spine -1.980442 -1.951773 -0.773325
Head -1.543420 1.411277 6.062889
LeftShoulder 2.138032 -2.865847 -1.436233
LeftArm 5.896725 31.451333 -66.515917
LeftForeArm -64.062854 -0.000000 43.270708
LeftHand -5.644992 -0.000000 -17.559478
LeftHandThumb1 -26.253704 0.000000 33.147579
RightShoulder -2.468985 -22.401586 2.105108
RightArm 25.901650 -33.674012 51.537237
RightForeArm -149.048258 0.000000 32.796785
RightHand -0.976330 -0.000000 -2.167667
RightHandThumb1 -24.326973 -0.000000 -32.862282
LeftUpLeg -0.643155 24.494951 5.570652
LeftLeg 9.154185 -0.000000 -0.000000
LeftFoot -22.758222 10.902234 -24.205422
LeftToeBase 14.824571 -0.000000 -0.000000
RightUpLeg -8.142381 2.003810 -0.495597
RightLeg 9.075562 -0.000000 -0.000000
RightFoot -10.756717 4.301660 11.693324
RightToeBase 10.706493 -0.000000 -0.000000
613
root -0.764019 36.841980 5.030544 6.821625 -21.290698 -3.340140
Spine -2.029889 -1.975633 -0.799914
Head -1.508149 1.414273 6.099270
LeftShoulder 2.152163 -2.986247 -1.349704
LeftArm 5.806041 31.018517 -66.566192
LeftForeArm -63.569270 -0.000000 45.300126
LeftHand -5.465247 -0.000000 -18.427012
LeftHandThumb1 -26.253704 0.000000 33.147579
RightShoulder -2.472540 -22.418296 2.124138
RightArm 25.957628 -33.686157 51.480018
RightForeArm -148.993429 -0.000000 32.896183
RightHand -0.997676 0.000000 -2.156700
RightHandThumb1 -24.326973 -0.000000 -32.862282
LeftUpLeg -0.663894 24.474553 5.558107
LeftLeg 9.152499 -0.000000 -0.000000
LeftFoot -22.760943 10.914332 -24.226371
LeftToeBase 14.826291 -0.000000 -0.000000
RightUpLeg -8.166795 2.000749 -0.499202
RightLeg 9.078916 -0.000000 -0.000000
RightFoot -10.753644 4.311447 11.681208
RightToeBase 10.651713 -0.000000 -0.000000
614
root -0.763280 36.841757 5.028178 6.838142 -21.279693 -3.343368
Spine -2.075538 -1.995273 -0.798623
Head -1.491248 1.380860 6.094343
LeftShoulder 2.122241 -2.962519 -1.307751
LeftArm 5.942474 30.731161 -66.426018
LeftForeArm -63.451385 -0.000000 47.473086
LeftHand -5.513935 0.000000 -18.674427
LeftHandThumb1 -26.253704 0.000000 33.147579
RightShoulder -2.502976 -22.417519 2.128046
RightArm 25.993063 -33.687932 51.461147
RightForeArm -148.975934 -0.000000 32.989815
RightHand -1.074111 -0.000000 -2.287251
RightHandThumb1 -24.326973 -0.000000 -32.862282
LeftUpLeg -0.690558 24.459234 5.552630
LeftLeg 9.161418 -0.000000 -0.000000
LeftFoot -22.778166 10.917551 -24.235061
LeftToeBase 14.834077 -0.000000 -0.000000
RightUpLeg -8.185215 1.970695 -0.492610
RightLeg 9.081456 -0.000000 -0.000000
RightFoot -10.753379 4.314227 11.645044
RightToeBase 10.643163 -0.000000 -0.000000
